<?xml version="1.0" standalone="no"?>
<!DOCTYPE svg PUBLIC "-//W3C//DTD SVG 20010904//EN"
 "http://www.w3.org/TR/2001/REC-SVG-20010904/DTD/svg10.dtd">
<svg version="1.0" xmlns="http://www.w3.org/2000/svg"
 width="757.000000pt" height="953.000000pt" viewBox="0 0 757.000000 953.000000"
 preserveAspectRatio="xMidYMid meet">

<g transform="translate(0.000000,953.000000) scale(0.100000,-0.100000)"
fill="#000000" stroke="none">
<path d="M0 4765 l0 -4765 3785 0 3785 0 0 4765 0 4765 -3785 0 -3785 0 0
-4765z m5484 2835 c70 -80 124 -151 121 -158 -3 -7 -1 -11 4 -8 8 5 46 -36
178 -189 14 -16 34 -40 45 -51 19 -21 19 -21 -45 -73 -71 -56 -82 -61 -74 -31
3 11 1 22 -3 25 -4 3 -7 -9 -6 -25 2 -32 -16 -56 -34 -45 -6 4 -9 1 -8 -6 4
-16 -203 -180 -219 -174 -7 2 -12 1 -12 -3 3 -19 -2 -33 -10 -28 -5 4 -11 2
-13 -4 -1 -5 -32 -31 -67 -58 l-64 -48 -31 32 c-75 79 -87 94 -81 104 4 6 3 9
-2 8 -10 -3 -114 106 -248 257 l-97 110 264 257 c145 142 266 256 269 255 3
-1 63 -67 133 -147z m-579 -592 c44 -50 79 -93 78 -94 -1 -2 10 -16 25 -32 27
-28 82 -89 115 -129 18 -20 17 -22 -46 -109 -35 -49 -75 -109 -89 -132 -14
-24 -28 -40 -30 -35 -3 4 -3 2 -1 -5 1 -7 -10 -39 -26 -70 -15 -31 -43 -96
-61 -144 -32 -87 -33 -88 -66 -88 -19 0 -79 -7 -135 -15 -55 -8 -104 -13 -109
-10 -5 3 -11 1 -15 -5 -3 -5 -17 -10 -30 -10 -25 0 -297 -82 -355 -106 -19 -9
-94 -45 -167 -82 -72 -37 -134 -64 -138 -60 -7 7 50 62 141 135 33 26 73 60
89 75 16 15 33 24 38 21 6 -3 7 -1 4 4 -4 6 32 44 81 84 48 41 90 78 93 83 4
5 12 5 18 2 6 -4 10 -3 9 2 -2 5 28 38 66 73 68 63 71 64 125 64 31 0 65 4 75
9 15 8 18 6 11 -5 -4 -8 -5 -11 0 -7 4 4 15 2 24 -4 10 -8 8 -4 -3 10 -16 19
-17 25 -6 35 10 10 11 9 5 -3 -5 -8 -5 -12 0 -8 4 4 10 29 12 56 3 39 -1 54
-18 76 -45 58 -117 66 -164 19 -25 -25 -42 -83 -31 -102 4 -5 -69 -76 -161
-156 -93 -81 -233 -204 -312 -273 -79 -70 -147 -128 -152 -130 -21 -8 -6 35
29 82 129 171 263 437 336 661 26 83 51 158 55 169 5 13 36 26 121 48 141 36
235 73 365 142 55 30 105 54 110 55 6 0 46 -40 90 -91z m-981 -1465 c87 -138
101 -169 111 -235 12 -80 -10 -144 -69 -203 -80 -80 -177 -97 -274 -49 -70 35
-118 93 -133 161 -20 90 -4 138 106 322 53 88 104 179 113 202 l16 40 26 -58
c15 -32 61 -113 104 -180z m285 -738 c243 -30 456 -98 529 -170 52 -52 56 -88
14 -133 -62 -66 -210 -121 -420 -157 -458 -79 -1069 -44 -1359 76 -89 37 -163
101 -163 141 0 109 268 212 658 253 173 18 554 13 741 -10z m-1259 -604 c144
-67 413 -116 703 -128 l147 -6 0 -59 0 -58 -112 0 c-138 0 -295 14 -449 40
-64 11 -119 20 -121 20 -3 0 -8 -46 -10 -102 -7 -182 -69 -276 -249 -377 -284
-160 -327 -192 -360 -266 -17 -37 -19 -95 -24 -675 -6 -525 -4 -644 7 -686 13
-47 13 -50 -4 -51 -10 -1 -18 4 -18 10 0 7 -4 6 -10 -3 -9 -13 -10 -13 -11 0
0 10 -3 8 -9 -5 -6 -13 -9 -15 -9 -5 0 8 4 22 9 30 8 12 10 12 10 1 0 -8 2
-12 5 -9 3 3 2 13 -1 22 -5 14 -9 15 -15 4 -6 -9 -9 -6 -9 11 0 19 -3 22 -12
13 -8 -8 -8 -15 2 -28 12 -14 11 -17 -4 -26 -15 -8 -16 -12 -5 -19 10 -6 11
-9 2 -9 -18 0 -16 -15 3 -34 8 -9 14 -22 12 -28 -3 -7 -16 12 -31 42 l-26 55
-3 690 -3 690 28 60 c38 81 104 146 212 207 258 146 308 180 347 241 32 50 33
56 36 172 l4 120 -35 17 c-85 40 -137 111 -137 185 l0 37 28 -27 c15 -14 65
-44 112 -66z m1826 24 c-9 -54 -66 -123 -126 -150 l-42 -19 4 -115 c6 -169 32
-210 198 -308 47 -28 134 -79 195 -114 130 -77 181 -132 215 -235 l23 -68 -6
-515 c-4 -284 -10 -534 -15 -556 -7 -36 -11 -40 -35 -37 -15 1 -27 -2 -27 -8
0 -5 -6 -10 -14 -10 -22 0 -26 -27 -7 -44 10 -9 20 -13 24 -10 3 4 13 0 21 -9
12 -12 13 -22 4 -53 -8 -30 -12 -35 -17 -21 -10 28 -25 21 -31 -13 -5 -31 -27
-39 -23 -8 2 11 -12 25 -37 39 -22 13 -40 26 -40 31 0 4 -9 8 -20 8 -11 0 -23
7 -26 15 -4 8 -12 15 -20 15 -8 0 -14 4 -14 9 0 5 -9 13 -20 16 -32 10 -23 25
15 25 19 0 35 4 35 9 0 16 -45 20 -67 6 -29 -19 -43 -19 -43 0 0 8 -4 15 -10
15 -5 0 -10 -25 -10 -55 l0 -55 -50 0 c-43 0 -50 -3 -50 -20 0 -14 7 -20 24
-20 19 0 76 -40 76 -53 0 -3 -14 -10 -31 -17 -29 -12 -33 -12 -50 11 -10 13
-19 32 -19 42 0 10 -8 17 -20 17 -11 0 -20 5 -20 10 0 11 -31 -4 -62 -29 -16
-12 -18 -12 -18 2 0 8 6 17 13 20 6 2 8 8 4 13 -11 12 -28 -17 -23 -38 6 -25
-6 -22 -38 7 -15 14 -28 25 -29 25 -2 0 -4 -12 -5 -26 -1 -20 2 -25 13 -20 8
3 15 0 15 -6 0 -7 13 -9 36 -5 29 5 35 3 32 -11 -2 -13 -13 -16 -51 -13 -29 1
-47 -2 -47 -8 0 -6 17 -11 37 -11 26 0 34 -3 26 -11 -6 -6 -23 -9 -39 -7 -21
2 -33 12 -44 35 -10 22 -22 33 -37 33 -12 0 -23 4 -25 9 -1 4 -52 11 -113 15
-60 4 -107 5 -104 1 4 -3 26 -8 49 -10 46 -5 68 -15 32 -15 -12 0 -22 -4 -22
-10 0 -5 -9 -10 -19 -10 -12 0 -18 -7 -17 -17 0 -12 -7 -19 -21 -21 -18 -3
-23 2 -23 17 0 17 -6 21 -34 21 -26 0 -35 5 -40 23 -5 19 -8 20 -17 7 -8 -12
-9 -9 -5 13 6 26 -6 37 -19 17 -5 -8 -11 -7 -21 1 -16 13 -17 9 -5 -24 9 -22
7 -26 -15 -31 -13 -4 -24 -10 -24 -15 0 -5 9 -7 19 -4 15 4 19 0 17 -21 -1
-23 -4 -25 -41 -22 -22 2 -48 0 -57 -5 -10 -6 -19 -5 -23 1 -4 6 -12 7 -18 3
-6 -4 9 13 33 38 25 24 71 72 103 107 31 34 57 58 57 53 0 -5 -7 -16 -15 -25
-9 -9 -11 -17 -5 -21 5 -3 10 -1 10 5 0 6 4 9 9 6 4 -3 7 9 6 28 -4 43 10 68
26 46 8 -12 9 -11 4 7 -7 24 27 87 40 75 5 -4 5 -1 1 6 -4 6 2 29 13 50 23 43
42 103 73 227 22 89 22 98 23 874 l0 785 87 17 c153 30 279 82 329 136 28 29
34 18 25 -42z m-984 -1957 c-3 -35 -10 -75 -16 -89 -9 -22 -13 -24 -24 -13 -8
9 -9 14 -2 14 6 0 9 4 6 8 -3 5 2 33 11 63 8 30 17 60 19 67 8 31 12 6 6 -50z
m1425 -210 c-3 -7 -5 -2 -5 12 0 14 2 19 5 13 2 -7 2 -19 0 -25z m-1467 12 c0
-5 -7 -7 -15 -4 -8 4 -15 8 -15 10 0 2 7 4 15 4 8 0 15 -4 15 -10z m-70 -25
c-11 -13 -11 -18 0 -28 10 -9 11 -9 6 1 -4 6 -2 12 3 12 6 0 11 -7 11 -16 0
-8 5 -12 10 -9 6 4 7 11 4 17 -4 7 -2 8 5 4 8 -5 3 -21 -16 -54 -32 -57 -53
-83 -63 -77 -4 2 -16 -2 -26 -11 -18 -14 -18 -15 4 -4 27 13 29 -1 2 -25 -11
-10 -26 -15 -35 -11 -12 4 -15 1 -10 -13 4 -14 1 -19 -12 -17 -10 0 -17 -4
-16 -11 3 -12 -31 -40 -92 -79 -16 -11 -26 -14 -22 -7 4 7 -1 14 -14 18 -11 4
-18 9 -15 12 3 4 0 13 -7 22 -11 14 -10 14 6 2 14 -11 21 -11 29 -3 7 7 20 12
30 12 11 0 18 7 18 20 0 11 -5 20 -11 20 -5 0 -8 -4 -4 -9 3 -5 1 -12 -4 -15
-5 -3 -12 2 -15 11 -4 9 -1 20 6 25 7 4 9 8 3 8 -18 -1 -47 -28 -34 -32 6 -2
-6 -4 -27 -5 l-39 -1 55 28 c30 15 60 25 65 20 6 -4 27 -10 48 -12 28 -3 36
-1 33 9 -5 12 6 17 26 14 4 0 5 6 2 13 -3 8 4 19 16 26 17 9 19 14 10 26 -7 7
-17 11 -23 7 -15 -9 0 14 52 79 25 31 47 55 50 53 2 -3 -2 -12 -9 -20z m1548
-155 c1 -19 -6 -44 -14 -55 -11 -14 -15 -15 -14 -5 5 34 0 40 -30 34 -27 -6
-30 -4 -30 17 0 13 4 31 10 39 8 12 10 12 16 -3 8 -22 24 -22 24 -1 0 13 3 14
15 4 12 -10 13 -6 10 27 -4 35 -4 35 4 8 5 -16 9 -46 9 -65z m-1644 5 c-42
-42 -64 -50 -83 -29 -9 11 -9 13 -1 6 18 -15 34 -16 24 0 -4 7 -3 8 4 4 7 -4
12 -3 12 3 0 5 -6 12 -12 15 -7 3 -3 3 10 0 13 -3 28 1 38 10 8 9 19 16 24 16
5 0 -2 -11 -16 -25z m576 16 c0 -10 -26 -9 -36 2 -4 4 2 7 14 7 12 0 22 -4 22
-9z m350 -48 c0 -7 -7 -13 -15 -13 -10 0 -15 10 -15 33 1 30 1 31 15 13 8 -11
15 -26 15 -33z m-350 7 c0 -5 -2 -10 -4 -10 -3 0 -8 5 -11 10 -3 6 -1 10 4 10
6 0 11 -4 11 -10z m567 -12 c-3 -8 -6 -5 -6 6 -1 11 2 17 5 13 3 -3 4 -12 1
-19z m-527 -13 c0 -2 -9 -9 -20 -15 -16 -9 -20 -8 -20 5 0 8 9 15 20 15 11 0
20 -2 20 -5z m153 -6 c-7 -7 -35 -14 -62 -17 -42 -4 -51 -2 -51 12 0 13 11 16
62 16 46 0 59 -3 51 -11z m811 -20 c4 6 4 17 0 24 -6 9 -3 8 8 -1 10 -8 14
-20 11 -29 -4 -11 -2 -14 5 -9 17 10 15 -9 -2 -23 -11 -9 -14 -8 -12 6 0 10
-5 18 -12 18 -14 0 -32 23 -31 40 0 6 6 -1 13 -14 8 -15 16 -20 20 -12z
m-1224 -3 c-6 -18 -5 -26 3 -29 7 -2 3 -3 -9 -1 -12 2 -29 -5 -39 -16 -10 -11
-24 -20 -32 -20 -7 0 -13 -6 -13 -12 0 -9 -3 -9 -9 1 -5 8 -7 19 -5 26 7 17
64 48 64 35 0 -6 5 -8 10 -5 6 4 7 11 4 17 -4 7 -2 8 4 4 7 -4 12 -1 12 8 0 9
4 16 10 16 6 0 6 -9 0 -24z m30 9 c0 -8 -4 -15 -10 -15 -5 0 -7 7 -4 15 4 8 8
15 10 15 2 0 4 -7 4 -15z m30 -2 c-1 -13 -29 -59 -30 -48 0 21 13 55 21 55 5
0 9 -3 9 -7z m-620 -37 c0 -2 -7 -7 -16 -10 -8 -3 -12 -2 -9 4 6 10 25 14 25
6z m1620 -21 c4 3 6 -4 3 -16 -5 -18 -3 -20 16 -14 19 6 26 -2 22 -27 0 -4 6
-5 14 -2 7 3 21 1 30 -4 14 -7 9 -12 -26 -28 -42 -18 -82 -19 -783 -22 -407
-1 -737 0 -734 3 3 3 327 5 722 5 399 0 716 4 716 9 0 4 -12 7 -27 4 -28 -3
-28 -3 -4 7 14 6 30 9 37 6 10 -4 11 1 5 17 -4 12 -6 28 -3 36 3 8 0 11 -6 7
-6 -3 -13 2 -15 11 -3 10 -5 1 -6 -19 -1 -36 -3 -38 -32 -38 -26 0 -30 3 -24
18 4 9 10 25 12 35 3 9 14 17 24 17 11 0 19 5 19 11 0 6 7 3 16 -5 8 -9 19
-14 24 -11z m-2359 5 c19 0 29 -5 29 -15 0 -8 -7 -15 -15 -15 -8 0 -15 -7 -15
-15 0 -9 7 -15 16 -13 10 2 19 -3 22 -11 3 -10 -2 -11 -19 -6 -19 5 -21 4 -9
-5 13 -10 13 -12 0 -18 -8 -4 116 -9 275 -12 l290 -6 -319 1 c-247 0 -320 3
-324 13 -2 6 -8 10 -13 6 -17 -10 -48 6 -42 22 5 13 7 13 14 2 6 -8 9 -9 9 -1
0 6 8 10 18 8 9 -2 23 -4 30 -4 7 -1 10 -5 7 -11 -11 -17 7 -11 21 8 19 24 17
30 -8 34 -15 2 -24 11 -26 27 -3 19 0 22 13 17 9 -3 30 -6 46 -6z m1153 -38
c3 -5 -1 -9 -9 -9 -8 0 -12 4 -9 9 3 4 7 8 9 8 2 0 6 -4 9 -8z m34 -4 c-3 -14
-18 -28 -30 -28 -4 0 0 9 9 20 20 23 24 25 21 8z m-68 -8 c0 -5 -8 -11 -17
-11 -17 -1 -17 -2 0 -6 23 -6 22 -22 -2 -20 -11 0 -17 5 -14 11 4 5 -1 7 -10
3 -27 -10 -20 1 11 17 33 18 32 18 32 6z"/>
<path d="M5610 7410 c0 -5 5 -10 10 -10 6 0 10 5 10 10 0 6 -4 10 -10 10 -5 0
-10 -4 -10 -10z"/>
<path d="M5075 6990 c-3 -6 1 -7 9 -4 18 7 21 14 7 14 -6 0 -13 -4 -16 -10z"/>
<path d="M5466 6892 l-19 -27 24 22 c12 12 21 24 18 27 -2 2 -13 -8 -23 -22z"/>
<path d="M5264 6759 c-4 -7 -3 -9 4 -5 5 3 13 0 15 -6 4 -9 6 -10 6 -1 1 17
-16 25 -25 12z"/>
<path d="M4935 6870 c-16 -17 -16 -20 -3 -15 9 4 19 13 22 21 7 19 2 18 -19
-6z"/>
<path d="M4974 6872 c-8 -5 -5 -13 7 -26 11 -11 19 -14 19 -8 0 6 -5 14 -10
17 -6 4 -8 11 -5 16 7 11 4 11 -11 1z"/>
<path d="M4775 6736 c-23 -25 -26 -40 -4 -19 12 12 21 24 18 27 -2 2 -9 -1
-14 -8z"/>
<path d="M4047 6027 c-3 -8 1 -14 8 -14 7 0 11 6 8 14 -3 7 -6 13 -8 13 -2 0
-5 -6 -8 -13z"/>
<path d="M3646 5381 c-27 -61 -34 -129 -17 -174 15 -39 67 -84 110 -95 23 -5
41 -8 41 -6 0 3 -16 19 -36 36 -68 60 -86 125 -69 246 4 29 5 52 2 52 -2 0
-16 -26 -31 -59z"/>
<path d="M3630 4739 c-325 -18 -559 -92 -533 -168 20 -56 91 -89 260 -120 285
-54 601 -54 888 0 167 31 272 90 252 142 -38 99 -457 169 -867 146z"/>
<path d="M2446 2250 c5 -80 4 -83 -10 -58 -8 15 -17 40 -19 55 -2 16 -5 5 -6
-27 -2 -44 -5 -50 -11 -30 l-8 25 -2 -25 c-2 -21 -4 -19 -10 10 -4 20 -7 -32
-7 -125 0 -88 2 -144 4 -125 9 91 32 112 34 33 2 -46 2 -47 9 -13 10 52 21 80
31 80 11 0 10 167 -1 235 -7 39 -8 32 -4 -35z m-16 -164 c0 -9 -30 -14 -35 -6
-4 6 3 10 14 10 12 0 21 -2 21 -4z"/>
<path d="M2393 1970 c0 -25 2 -35 4 -22 2 12 2 32 0 45 -2 12 -4 2 -4 -23z"/>
<path d="M2460 1881 c0 -5 5 -13 10 -16 6 -3 10 -2 10 4 0 5 -4 13 -10 16 -5
3 -10 2 -10 -4z"/>
<path d="M5173 2290 c0 -25 2 -35 4 -22 2 12 2 32 0 45 -2 12 -4 2 -4 -23z"/>
<path d="M5151 2264 c0 -11 3 -14 6 -6 3 7 2 16 -1 19 -3 4 -6 -2 -5 -13z"/>
<path d="M5191 2264 c0 -11 3 -14 6 -6 3 7 2 16 -1 19 -3 4 -6 -2 -5 -13z"/>
<path d="M5160 2151 c0 -6 5 -13 10 -16 6 -3 10 1 10 9 0 9 -4 16 -10 16 -5 0
-10 -4 -10 -9z"/>
<path d="M4200 2130 c-6 -11 -9 -20 -8 -21 24 -6 38 -5 38 2 0 5 -4 9 -10 9
-5 0 -7 7 -4 15 9 22 -4 18 -16 -5z"/>
<path d="M4240 2124 c0 -8 5 -12 10 -9 6 4 8 11 5 16 -9 14 -15 11 -15 -7z"/>
<path d="M4600 1980 c0 -5 5 -10 10 -10 6 0 10 5 10 10 0 6 -4 10 -10 10 -5 0
-10 -4 -10 -10z"/>
<path d="M4076 1947 c3 -10 9 -15 12 -12 3 3 0 11 -7 18 -10 9 -11 8 -5 -6z"/>
<path d="M3985 1871 c-13 -13 -2 -20 15 -11 11 6 24 8 29 5 5 -3 20 -1 33 4
18 7 14 9 -25 8 -26 -1 -50 -3 -52 -6z"/>
<path d="M3498 1818 c8 -8 18 -8 34 -1 21 9 20 10 -11 11 -25 0 -31 -2 -23
-10z"/>
<path d="M3496 1793 c5 -5 12 -12 16 -18 4 -6 8 -2 8 8 0 9 -7 17 -17 17 -9 0
-12 -3 -7 -7z"/>
<path d="M3483 1765 c0 -8 4 -12 9 -9 4 3 8 9 8 15 0 5 -4 9 -8 9 -5 0 -9 -7
-9 -15z"/>
<path d="M3430 1755 c-7 -9 -6 -14 4 -18 11 -4 13 -1 9 11 -6 14 -4 15 8 5 13
-10 16 -10 16 0 0 17 -24 18 -37 2z"/>
<path d="M3860 1770 c0 -5 5 -10 10 -10 6 0 10 5 10 10 0 6 -4 10 -10 10 -5 0
-10 -4 -10 -10z"/>
<path d="M2608 1663 c7 -3 16 -2 19 1 4 3 -2 6 -13 5 -11 0 -14 -3 -6 -6z"/>
</g>
</svg>
